<?xml version="1.0" encoding="utf-8"?>
<!-- Generator: Adobe Illustrator 25.0.0, SVG Export Plug-In . SVG Version: 6.00 Build 0)  -->
<svg version="1.1" id="Layer_1" xmlns="http://www.w3.org/2000/svg" xmlns:xlink="http://www.w3.org/1999/xlink" x="0px" y="0px"
	 viewBox="0 0 64 64" style="enable-background:new 0 0 64 64;" xml:space="preserve">
<style type="text/css">
	.st0{fill-rule:evenodd;clip-rule:evenodd;fill:#FF2A7F;stroke:#000000;stroke-width:0.5324;}
	.st1{fill-rule:evenodd;clip-rule:evenodd;fill:#FFFFFF;fill-opacity:0.785;}
	.st2{fill-rule:evenodd;clip-rule:evenodd;fill:#FF8080;stroke:#000000;stroke-width:0.248;}
</style>
<g>
	<path class="st0" d="M15.8,51.1c-4.3-6.2,4.9-9.2,8.4-4.3c-1.1-5.7,7.5-8.5,9.2-1.2c1.3,5.6-5,7.5-3.7,16.1
		C24.9,54.3,19.1,55.9,15.8,51.1L15.8,51.1z"/>
	<path class="st1" d="M31.8,47.4c-0.4-3.8-2.7-4.6-6.1-3.4C28.7,41.4,33,42.3,31.8,47.4L31.8,47.4z"/>
	<path class="st0" d="M36.3,30.7c0.7-9.8,12.8-5.3,12.4,2.4c3.7-6.6,15-2.5,10.6,6.3C56,46.2,47.8,43,42,52.7
		C43.2,41.3,35.8,38.3,36.3,30.7L36.3,30.7z"/>
	<path class="st1" d="M56.3,40c2.7-4.2,1.1-6.9-3.5-8.4C58.1,31.3,61.7,35.7,56.3,40z"/>
	<path class="st0" d="M9.5,23.3c-7.2-8.5,6.1-14.5,11.9-7.9c-2.3-8.3,10.1-14,13.6-3.3c2.7,8.2-6.5,12.1-3.4,24.6
		C23.5,26.5,15.1,29.9,9.5,23.3L9.5,23.3z"/>
	<path class="st1" d="M32.9,15c-1.1-5.5-4.6-6.4-9.5-4C27.5,6.5,34,7.2,32.9,15z"/>
</g>
<g>
	<path class="st2" d="M16.6,42.7c4.2-3.1,7.2-6.3,10.3-9.5c0.6-1.4,0.1-2.9,0.1-4.4c0.3-4.3,1.7-6.8,3.2-8.7
		c0.8-0.6,5.1-0.4,7.7-0.6c3-0.1,3,3.3,4.5,6.4c0.1,0.7-1.9,1.4-2.4,1.3c-3.1-2-3.7-2.8-4.4-4.6c0.4,2.4-1.8,1.7-3.4,1.2
		c1.7,0.6,2.1,0.7,2.8,2c0.6,1.1,1.7,2.2,2,3.1c1.1,2.9-0.4,5.2-1.7,7c0.9-1.2,1.9-1.6,2.6-3.6c2.3,0.2,1.7,2.6,2.3,4.1
		c2.6,0.8,3.3,0.6,4.9,1c-3.1,1.2-2.8,1.9-4.1,2.8c-2,0.9-3.6,0.6-5.4,0.9c-0.4-2.6-1.2-2.3-1.9-3.1c-0.3-0.7,0.1-1,0.1-1.5
		c-1.2,1.4-2.5-0.2-3.7-0.5c1,0.7,2.6,1.6,2.8,2c0.3,0.7-1.8,2-2.7,3c1-0.9,1.8-1.2,3.1-2.6c1.1,0.2,1.6,2.1,1.8,2.9
		c-0.9,0.8-1.4,1.7-2.8,2.3l-5.5,7.1C26.4,50.3,17,43,16.6,42.7z"/>
	<path class="st2" d="M38.2,19.1c1.4-1,3-1.1,4.7-1.8c2.5-0.3,3.2,2.6,3.9,3.4c-0.7,1.2-2.6,1.3-5.1,2.1
		C41.1,20.6,40.1,19.1,38.2,19.1z M42,23.7c0.7-0.3,3.1-1.3,4.7-1.6c0.6,0.1,1.5,1.5,1.9,3.9c-0.6,1.1-5,1.7-10.3,3.3
		c-0.4,0-2-2.4-1.7-3.5c1-0.4,1.6,1.4,3.5,1.8c0.6,0.1,2.8-0.5,2.8-1.6C42.6,25.2,42.5,24.4,42,23.7z M38.8,30.3
		c-0.1-0.8,6-2.1,8.9-3.1c1.3-0.1,2.1,3.9,1.7,4.1c-2.6,0.9-5.1,1.3-7.6,1.7C39.7,33.4,38.7,31.5,38.8,30.3L38.8,30.3z M40.5,33.6
		c-0.3,0.1-0.2,1,0.2,2.2c1.6,0.4,2.1,0.7,4.9,1.1c1.3-0.2,2.5-0.6,3.6-1.2c0.4,0.1,0.2-3.6-0.5-3.6C45.6,33.2,43.9,33.5,40.5,33.6z
		"/>
</g>
</svg>
